<svg width="16" height="16" viewBox="0 0 16 16" fill="none" xmlns="http://www.w3.org/2000/svg">
<path d="M7.7821 4.81832C7.1981 4.81832 6.29409 4.15432 5.34209 4.17832C4.08609 4.19432 2.93409 4.90631 2.28609 6.03431C0.982089 8.29833 1.95009 11.6423 3.22209 13.4823C3.84609 14.3783 4.58209 15.3863 5.55809 15.3543C6.49409 15.3143 6.8461 14.7463 7.9821 14.7463C9.1101 14.7463 9.4301 15.3543 10.4221 15.3303C11.4301 15.3143 12.0701 14.4183 12.6861 13.5143C13.3981 12.4743 13.6941 11.4663 13.7101 11.4103C13.6861 11.4023 11.7501 10.6583 11.7261 8.41833C11.7101 6.54631 13.2541 5.65032 13.3261 5.61032C12.4461 4.32231 11.0941 4.17832 10.6221 4.14632C9.3901 4.05032 8.3581 4.81832 7.7821 4.81832ZM9.8621 2.93032C10.3821 2.30632 10.7261 1.43432 10.6301 0.570312C9.8861 0.602313 8.9901 1.06632 8.4541 1.69032C7.9741 2.24232 7.5581 3.13032 7.6701 3.97832C8.4941 4.04232 9.3421 3.55432 9.8621 2.93032Z" fill="#111115"/>
</svg>
