<svg width="18" height="18" viewBox="0 0 18 18" fill="none" xmlns="http://www.w3.org/2000/svg">
<path d="M9.00025 2.25C10.6571 2.25 12.0002 3.59315 12.0002 5.25C12.0002 5.65832 11.919 6.04642 11.7721 6.40004C10.5413 6.53187 9.3781 7.16889 8.61055 8.22504C7.66615 8.10257 6.85882 7.54097 6.40087 6.74903C6.14621 6.30862 6.00023 5.79749 6.00023 5.25C6.00023 3.59315 7.34338 2.25 9.00025 2.25ZM13.3229 6.50436C13.4384 6.10583 13.5002 5.68482 13.5002 5.25C13.5002 2.76472 11.4855 0.750001 9.00025 0.75C6.51495 0.749999 4.50023 2.76472 4.50023 5.25C4.50023 5.68484 4.5621 6.10587 4.6776 6.50441C4.27476 6.60366 3.87925 6.76058 3.50271 6.97798C1.35039 8.22062 0.612951 10.9727 1.85559 13.1251C3.09823 15.2774 5.85039 16.0148 8.00267 14.7722C8.37925 14.5548 8.71292 14.2907 9.00025 13.9915C9.28765 14.2907 9.62125 14.5547 9.99775 14.7722C12.1501 16.0148 14.9022 15.2774 16.1449 13.125C17.3875 10.9727 16.6501 8.22054 14.4977 6.97792C14.1212 6.76053 13.7257 6.60361 13.3229 6.50436ZM9.86597 12.7007C10.3673 11.5689 10.3973 10.2429 9.86642 9.05012C10.4447 8.29337 11.3346 7.87502 12.2494 7.87442C12.758 7.87412 13.2737 8.00327 13.7477 8.27694C15.1826 9.10539 15.6743 10.9402 14.8458 12.375C14.0174 13.8099 12.1826 14.3015 10.7477 13.4731C10.3942 13.269 10.0988 13.0047 9.86597 12.7007ZM8.52392 9.72519C8.89015 10.6043 8.80742 11.5843 8.35052 12.3768C8.09642 12.8175 7.72682 13.1994 7.25271 13.4732C5.81783 14.3016 3.98306 13.81 3.15463 12.3751C2.32621 10.9402 2.81783 9.10547 4.25271 8.27702C4.60631 8.07287 4.98299 7.94912 5.36267 7.89954C6.09225 8.89952 7.22554 9.58847 8.52392 9.72519Z" fill="#4E4E55"/>
</svg>
