<svg width="16" height="16" viewBox="0 0 16 16" fill="none" xmlns="http://www.w3.org/2000/svg">
<path d="M14.9904 8.13472C14.9904 7.53384 14.9417 7.09535 14.8361 6.64062H7.97461V9.35273H12.0022C11.921 10.0267 11.4825 11.0417 10.5081 11.7238L10.4944 11.8146L12.6639 13.4953L12.8142 13.5103C14.1946 12.2354 14.9904 10.3596 14.9904 8.13472Z" fill="#4285F4"/>
<path d="M7.97443 15.2846C9.9476 15.2846 11.6041 14.635 12.814 13.5144L10.5079 11.728C9.89078 12.1583 9.0625 12.4588 7.97443 12.4588C6.04184 12.4588 4.40158 11.1839 3.81687 9.42188L3.73117 9.42915L1.4753 11.175L1.4458 11.257C2.64757 13.6443 5.11611 15.2846 7.97443 15.2846Z" fill="#34A853"/>
<path d="M3.81709 9.41777C3.66281 8.96304 3.57353 8.4758 3.57353 7.97237C3.57353 7.46889 3.66281 6.9817 3.80898 6.52698L3.80489 6.43013L1.52075 4.65625L1.44602 4.6918C0.950713 5.68247 0.666504 6.79495 0.666504 7.97237C0.666504 9.14979 0.950713 10.2622 1.44602 11.2529L3.81709 9.41777Z" fill="#FBBC05"/>
<path d="M7.97443 3.48986C9.34671 3.48986 10.2724 4.08263 10.8002 4.57799L12.8627 2.56418C11.596 1.38676 9.9476 0.664062 7.97443 0.664062C5.11611 0.664062 2.64757 2.30432 1.4458 4.69163L3.80876 6.52681C4.40158 4.76474 6.04184 3.48986 7.97443 3.48986Z" fill="#EB4335"/>
</svg>
