<svg width="66" height="28" viewBox="0 0 66 28" fill="none" xmlns="http://www.w3.org/2000/svg">
<path d="M9.75586 6.35609C10.3877 6.27096 11.3053 6.32137 11.9336 6.48987C13.3789 6.87771 13.8543 8.10508 14.5117 9.32191L15.9424 11.986L20.9424 21.2867C19.5168 21.3042 18.0906 21.3064 16.665 21.2936L15.1143 18.3063C13.8438 18.2838 12.5076 18.3023 11.2324 18.3014L5.78906 18.2985C5.2911 19.3031 4.7759 20.299 4.24512 21.2867C2.83011 21.3005 1.415 21.3002 0 21.2848C0.200134 21.0062 0.524462 20.3558 0.701172 20.0231L1.93066 17.7096L5.7041 10.7145C5.95913 10.2367 6.22782 9.73933 6.47852 9.26136C7.30726 7.68123 7.81227 6.60246 9.75586 6.35609ZM10.4053 9.64417C9.98907 10.2606 9.4996 11.2567 9.14551 11.9362L7.27539 15.5094H10.5645L13.6533 15.5104C13.2928 14.8318 10.7179 9.77826 10.4053 9.64417Z" fill="#2147DD"/>
<path d="M53.4195 6.41626C57.174 6.35912 61.0231 6.40246 64.7865 6.40252C64.7298 7.28675 64.7142 8.23569 64.0577 8.91278C63.6988 9.28228 63.0701 9.5069 62.566 9.58397C61.6691 9.72106 60.6403 9.66809 59.7228 9.67043C57.924 9.67494 56.1224 9.65068 54.3242 9.66292C53.9325 9.67221 53.3911 9.72679 53.1179 10.0369C52.6906 10.5212 52.6861 11.7818 53.3054 12.1169C53.8857 12.4306 54.7943 12.3525 55.447 12.3503L59.3895 12.3368C62.4842 12.3304 65.2072 12.2944 65.3518 16.3345C65.4804 19.9229 64.1745 21.2421 60.5713 21.2987L49.0195 21.2918C49.0479 20.3946 49.1319 19.5289 49.7773 18.8212C50.1212 18.4443 50.6904 18.2068 51.1872 18.1227C52.0546 17.976 53.0689 18.026 53.9558 18.0236C55.9911 18.0181 58.0303 18.0461 60.0656 18.031C60.5079 18.0216 61.0303 17.9233 61.333 17.5745C61.7342 17.1119 61.7381 15.729 61.1388 15.4215C60.6097 15.1499 59.7228 15.2136 59.1219 15.2148L55.719 15.2239C52.5454 15.2332 49.2399 15.6052 49.0501 11.3685C48.9021 8.05414 50.0611 6.57433 53.4195 6.41626Z" fill="#2147DD"/>
<path fill-rule="evenodd" clip-rule="evenodd" d="M29.2656 12.7703C35.0477 4.59894 43.0707 -0.809244 53.4355 0.0993897C50.7563 0.386456 48.1531 1.16417 45.7559 2.39431C45.0921 2.73137 44.471 3.12269 43.8184 3.48123C43.4551 3.79479 42.8787 4.132 42.4736 4.41873C41.801 4.90363 41.1464 5.41477 40.5127 5.94998C37.9453 8.10585 35.7518 10.896 33.7529 13.5652C34.5112 14.4483 35.2785 15.3233 36.0557 16.1892C36.2482 16.4062 37.0782 17.3333 37.2012 17.5359C38.0329 18.3796 38.8022 19.3534 39.5967 20.2351C39.8554 20.522 40.2723 21.0505 40.5371 21.2976C39.3103 21.3046 35.9867 21.557 35.1943 20.8289C34.7325 20.5762 31.9491 17.3079 31.3994 16.6853C30.8875 17.2441 30.3855 17.9053 29.8623 18.4871C28.7555 19.7104 27.5521 20.8426 26.2637 21.8728C21.388 25.7616 15.5426 27.6762 9.30176 26.9773C10.6561 26.7667 11.7653 26.5904 13.0957 26.1883C18.2327 24.6356 22.2758 21.2908 25.7207 17.2888C26.4177 16.4791 27.0309 15.671 27.6982 14.8455C28.1308 14.1602 28.7874 13.4461 29.2656 12.7703ZM15.0596 0.369898C15.5474 0.278008 16.2552 0.365777 16.7461 0.410913C21.6917 0.865605 25.6197 4.26547 28.7031 7.89822C29.1668 8.44446 29.6869 8.98753 30.1143 9.56521C29.6494 10.2533 28.3502 12.0404 27.8203 12.656C24.952 9.42306 22.4659 5.80345 18.5664 3.75662C17.9649 3.44783 17.3371 3.19303 16.6904 2.99587C16.5552 2.95394 15.7468 2.72461 15.6611 2.6824C10.8369 1.87478 6.68902 3.88586 3.15039 7.03884C3.44033 6.61221 4.50085 5.41548 4.87012 5.03884C7.54784 2.30821 11.2023 0.446205 15.0596 0.369898Z" fill="url(#paint0_linear_13153_212605)"/>
<path fill-rule="evenodd" clip-rule="evenodd" d="M29.2656 12.7703C35.0477 4.59894 43.0707 -0.809244 53.4355 0.0993897C50.7563 0.386456 48.1531 1.16417 45.7559 2.39431C45.0921 2.73137 44.471 3.12269 43.8184 3.48123C43.4551 3.79479 42.8787 4.132 42.4736 4.41873C41.801 4.90363 41.1464 5.41477 40.5127 5.94998C37.9453 8.10585 35.7518 10.896 33.7529 13.5652C34.5112 14.4483 35.2785 15.3233 36.0557 16.1892C36.2482 16.4062 37.0782 17.3333 37.2012 17.5359C38.0329 18.3796 38.8022 19.3534 39.5967 20.2351C39.8554 20.522 40.2723 21.0505 40.5371 21.2976C39.3103 21.3046 35.9867 21.557 35.1943 20.8289C34.7325 20.5762 31.9491 17.3079 31.3994 16.6853C30.8875 17.2441 30.3855 17.9053 29.8623 18.4871C28.7555 19.7104 27.5521 20.8426 26.2637 21.8728C21.388 25.7616 15.5426 27.6762 9.30176 26.9773C10.6561 26.7667 11.7653 26.5904 13.0957 26.1883C18.2327 24.6356 22.2758 21.2908 25.7207 17.2888C26.4177 16.4791 27.0309 15.671 27.6982 14.8455C28.1308 14.1602 28.7874 13.4461 29.2656 12.7703ZM15.0596 0.369898C15.5474 0.278008 16.2552 0.365777 16.7461 0.410913C21.6917 0.865605 25.6197 4.26547 28.7031 7.89822C29.1668 8.44446 29.6869 8.98753 30.1143 9.56521C29.6494 10.2533 28.3502 12.0404 27.8203 12.656C24.952 9.42306 22.4659 5.80345 18.5664 3.75662C17.9649 3.44783 17.3371 3.19303 16.6904 2.99587C16.5552 2.95394 15.7468 2.72461 15.6611 2.6824C10.8369 1.87478 6.68902 3.88586 3.15039 7.03884C3.44033 6.61221 4.50085 5.41548 4.87012 5.03884C7.54784 2.30821 11.2023 0.446205 15.0596 0.369898Z" fill="url(#paint1_linear_13153_212605)" fill-opacity="0.58"/>
<path fill-rule="evenodd" clip-rule="evenodd" d="M29.2656 12.7703C35.0477 4.59894 43.0707 -0.809244 53.4355 0.0993897C50.7563 0.386456 48.1531 1.16417 45.7559 2.39431C45.0921 2.73137 44.471 3.12269 43.8184 3.48123C43.4551 3.79479 42.8787 4.132 42.4736 4.41873C41.801 4.90363 41.1464 5.41477 40.5127 5.94998C37.9453 8.10585 35.7518 10.896 33.7529 13.5652C34.5112 14.4483 35.2785 15.3233 36.0557 16.1892C36.2482 16.4062 37.0782 17.3333 37.2012 17.5359C38.0329 18.3796 38.8022 19.3534 39.5967 20.2351C39.8554 20.522 40.2723 21.0505 40.5371 21.2976C39.3103 21.3046 35.9867 21.557 35.1943 20.8289C34.7325 20.5762 31.9491 17.3079 31.3994 16.6853C30.8875 17.2441 30.3855 17.9053 29.8623 18.4871C28.7555 19.7104 27.5521 20.8426 26.2637 21.8728C21.388 25.7616 15.5426 27.6762 9.30176 26.9773C10.6561 26.7667 11.7653 26.5904 13.0957 26.1883C18.2327 24.6356 22.2758 21.2908 25.7207 17.2888C26.4177 16.4791 27.0309 15.671 27.6982 14.8455C28.1308 14.1602 28.7874 13.4461 29.2656 12.7703ZM15.0596 0.369898C15.5474 0.278008 16.2552 0.365777 16.7461 0.410913C21.6917 0.865605 25.6197 4.26547 28.7031 7.89822C29.1668 8.44446 29.6869 8.98753 30.1143 9.56521C29.6494 10.2533 28.3502 12.0404 27.8203 12.656C24.952 9.42306 22.4659 5.80345 18.5664 3.75662C17.9649 3.44783 17.3371 3.19303 16.6904 2.99587C16.5552 2.95394 15.7468 2.72461 15.6611 2.6824C10.8369 1.87478 6.68902 3.88586 3.15039 7.03884C3.44033 6.61221 4.50085 5.41548 4.87012 5.03884C7.54784 2.30821 11.2023 0.446205 15.0596 0.369898Z" fill="url(#paint2_linear_13153_212605)" fill-opacity="0.44"/>
<path d="M43.4071 6.4142C44.3902 6.39033 45.4429 6.40742 46.4311 6.40563L46.4366 21.297L45.4985 21.3028C44.9566 21.3056 43.0883 21.3647 42.7016 21.204C42.4784 20.721 42.5335 19.2422 42.533 18.6589L42.5313 15.5737L42.5319 10.316C42.5319 9.34121 42.5246 8.36756 42.5474 7.39303C42.563 6.71182 42.7611 6.52888 43.4071 6.4142Z" fill="#2147DD"/>
<defs>
<linearGradient id="paint0_linear_13153_212605" x1="43.5" y1="2" x2="16.5" y2="27" gradientUnits="userSpaceOnUse">
<stop stop-color="#68CDEB"/>
<stop offset="0.222912" stop-color="#90EFF9"/>
<stop offset="0.368843" stop-color="#61F5FD"/>
<stop offset="0.442374" stop-color="#6BF9FF"/>
<stop offset="0.584517" stop-color="#9BF9F8"/>
<stop offset="0.972426" stop-color="#5363CA"/>
</linearGradient>
<linearGradient id="paint1_linear_13153_212605" x1="7" y1="3.5" x2="38.5" y2="6.5" gradientUnits="userSpaceOnUse">
<stop stop-color="#3155E3"/>
<stop offset="0.349018" stop-color="#5369C3"/>
<stop offset="0.495115" stop-color="#82E1F9"/>
<stop offset="0.924808" stop-color="#49D5F8"/>
<stop offset="1" stop-color="#183298"/>
</linearGradient>
<linearGradient id="paint2_linear_13153_212605" x1="35" y1="9" x2="23" y2="5.5" gradientUnits="userSpaceOnUse">
<stop stop-color="#248AA4"/>
<stop offset="1" stop-color="#16288D"/>
</linearGradient>
</defs>
</svg>
