<svg width="24" height="24" viewBox="0 0 24 24" fill="none" xmlns="http://www.w3.org/2000/svg">
<path d="M8.57073 17.1422C13.3046 17.1422 17.1422 13.3046 17.1422 8.57073C17.1422 8.03423 17.0929 7.50924 16.9986 7.00004C16.4894 6.90574 15.9644 6.85645 15.4279 6.85645C10.694 6.85645 6.85645 10.694 6.85645 15.4279C6.85645 15.9644 6.90574 16.4894 7.00004 16.9986C7.50923 17.0929 8.03423 17.1422 8.57073 17.1422Z" fill="#2147DD"/>
<path fill-rule="evenodd" clip-rule="evenodd" d="M7.00074 16.9983C3.01701 16.2605 0 12.7678 0 8.57045C0 3.83658 3.83756 -0.000976562 8.57143 -0.000976562C12.7688 -0.000976562 16.2615 3.01603 16.9993 6.99976C16.4901 6.90546 15.9651 6.85617 15.4286 6.85617C10.6947 6.85617 6.85714 10.6937 6.85714 15.4276C6.85714 15.9641 6.90643 16.4891 7.00074 16.9983Z" fill="#437DFC"/>
<path fill-rule="evenodd" clip-rule="evenodd" d="M8.57069 17.1421C13.3046 17.1421 17.1421 13.3046 17.1421 8.57069C17.1421 8.03419 17.0928 7.5092 16.9985 7C20.9823 7.73777 23.9993 11.2305 23.9993 15.4278C23.9993 20.1617 20.1617 23.9993 15.4278 23.9993C11.2305 23.9993 7.73777 20.9823 7 16.9985C7.5092 17.0928 8.03419 17.1421 8.57069 17.1421Z" fill="#437DFC"/>
</svg>
