<svg width="16" height="18" viewBox="0 0 16 18" fill="none" xmlns="http://www.w3.org/2000/svg">
<path d="M8.33333 11.0433V12.7845C7.812 12.6003 7.25108 12.5 6.66667 12.5C3.90524 12.5 1.66667 14.7386 1.66667 17.5H0C0 13.8181 2.98477 10.8333 6.66667 10.8333C7.24217 10.8333 7.80067 10.9062 8.33333 11.0433ZM6.66667 10C3.90417 10 1.66667 7.7625 1.66667 5C1.66667 2.2375 3.90417 0 6.66667 0C9.42917 0 11.6667 2.2375 11.6667 5C11.6667 7.7625 9.42917 10 6.66667 10ZM6.66667 8.33333C8.50833 8.33333 10 6.84167 10 5C10 3.15833 8.50833 1.66667 6.66667 1.66667C4.825 1.66667 3.33333 3.15833 3.33333 5C3.33333 6.84167 4.825 8.33333 6.66667 8.33333ZM15.8333 14.1667V15.8333H9.16667V14.1667H15.8333Z" fill="#4E4E55"/>
</svg>
